<?xml version="1.0" standalone="no"?><!DOCTYPE svg PUBLIC "-//W3C//DTD SVG 1.1//EN"
        "http://www.w3.org/Graphics/SVG/1.1/DTD/svg11.dtd">
<svg t="1624145895016" class="icon" viewBox="0 0 1024 1024" version="1.1" xmlns="http://www.w3.org/2000/svg" p-id="2470"
     width="128" height="128">
    <defs>
        <style type="text/css"></style>
    </defs>
    <path d="M482.18 801.38l-91.1 91.16s-22-36.48 9.8-81.22c0 0 23.46-34.56 58.86-32.4zM482.18 801.38l-91.1 91.16s36.46 22.12 81.16-9.82c0 0 34.52-23.48 32.38-58.9z"
          fill="#FFD43B" p-id="2471"></path>
    <path d="M482.18 801.38l-56.94 56.98s-13.82-22.8 6.12-50.76c0 0 14.66-21.6 36.78-20.26z" fill="#FAB005"
          p-id="2472"></path>
    <path d="M482.18 801.38l-56.94 56.98s22.76 13.82 50.76-6.14c0 0 21.58-14.68 20.24-36.8z" fill="#FAB005"
          p-id="2473"></path>
    <path d="M331 697.4l-182.2 182.32s-44.2-72.98 19.6-162.44c0 0 46.92-69.1 117.7-64.82zM331 697.4l-182.2 182.32s72.92 44.22 162.32-19.62c0 0 69.06-46.96 64.78-117.78z"
          fill="#FFD43B" p-id="2474"></path>
    <path d="M333.28 695.12l-113.88 114s-27.62-45.6 12.26-101.52c0 0 29.32-43.18 73.56-40.52zM333.28 695.12l-113.88 114s45.58 27.64 101.46-12.26c0 0 43.16-29.36 40.48-73.62z"
          fill="#FAB005" p-id="2475"></path>
    <path d="M476.76 733.86l-182.2-182.34L623.66 222.2a293.3 293.3 0 0 1 214-86l22 0.5a32.3 32.3 0 0 1 31.56 31.58l0.5 22a293.72 293.72 0 0 1-85.86 214.16z"
          fill="#DEE2E6" p-id="2476"></path>
    <path d="M312.796 569.788l145.768 145.87-36.47 36.446a25.78 25.78 0 0 1-36.46-0.012l-109.322-109.4a25.78 25.78 0 0 1 0.012-36.46l36.472-36.444z"
          fill="#495057" p-id="2477"></path>
    <path d="M413.018813 597.149321m9.104356 9.110714l0.014137 0.014147q9.104356 9.110714-0.006358 18.215069l-91.177875 91.114243q-9.110714 9.104356-18.215069-0.006358l-0.014137-0.014147q-9.104356-9.110714 0.006358-18.21507l91.177874-91.114242q9.110714-9.104356 18.21507 0.006358Z"
          fill="#868E96" p-id="2478"></path>
    <path d="M507.54 826.74L456.82 776a16.44 16.44 0 0 1 0-23.26L718.18 491.2a119.04 119.04 0 0 1 86.86-34.88l8.94 0.2a13.1 13.1 0 0 1 12.8 12.82l0.2 8.94a119.22 119.22 0 0 1-34.84 86.92L530.76 826.74a16.42 16.42 0 0 1-23.22 0z"
          fill="#FF6B6B" p-id="2479"></path>
    <path d="M226.56 545.58l-91.1 91.16s-22-36.48 9.8-81.22c0 0 23.46-34.56 58.86-32.4zM226.56 545.58l-91.1 91.16s36.46 22.12 81.16-9.82c0 0 34.52-23.48 32.38-58.9z"
          fill="#FFD43B" p-id="2480"></path>
    <path d="M226.56 545.58l-56.94 56.98s-13.82-22.8 6.12-50.76c0 0 14.66-21.6 36.78-20.26zM226.56 545.58l-56.94 56.98s22.78 13.82 50.72-6.14c0 0 21.58-14.68 20.24-36.8z"
          fill="#FAB005" p-id="2481"></path>
    <path d="M252 570.96l-50.8-50.76a16.44 16.44 0 0 1 0-23.26L462.56 235.4a119.04 119.04 0 0 1 86.86-34.88l8.94 0.2a13.1 13.1 0 0 1 12.8 12.82l0.2 8.94a119.22 119.22 0 0 1-34.84 86.92L275.14 570.96a16.42 16.42 0 0 1-23.14 0z"
          fill="#FF6B6B" p-id="2482"></path>
    <path d="M728 395.14a67.18 67.18 0 1 1 0-95.14 67.12 67.12 0 0 1 0 95.14z" fill="#4DADF7" p-id="2483"></path>
    <path d="M680.54 423.8a76.2 76.2 0 1 1 53.84-22.32 75.6 75.6 0 0 1-53.84 22.32z m0-134.42a58.22 58.22 0 1 0 41.14 99.4 58.22 58.22 0 0 0-41.14-99.4z"
          fill="#686F77" p-id="2484"></path>
    <path d="M681.054 92.566l254.372 254.548-34.872 34.85L646.18 127.414zM399.596 425.368l203.28 203.42L568 663.64l-203.28-203.42z"
          fill="#CED4DA" p-id="2485"></path>
    <path d="M567.86 825.02l-91.1-91.16 218.64-218.8v154.72a154.76 154.76 0 0 1-45.28 109.4l-45.82 45.86a25.76 25.76 0 0 1-36.44-0.02zM203.46 460.36l91.1 91.16L513.2 332.74h-154.6A154.56 154.56 0 0 0 249.28 378l-45.82 45.86a25.8 25.8 0 0 0 0 36.5z"
          fill="#686F77" p-id="2486"></path>
</svg>